<?xml version="1.0" encoding="utf-8"?>
<!-- Generator: Adobe Illustrator 23.0.6, SVG Export Plug-In . SVG Version: 6.00 Build 0)  -->
<svg version="1.1" id="Ebene_1" xmlns="http://www.w3.org/2000/svg" xmlns:xlink="http://www.w3.org/1999/xlink" x="0px" y="0px"
	 viewBox="0 0 359.3 92.3" style="enable-background:new 0 0 359.3 92.3;" xml:space="preserve">
<style type="text/css">
	.st0{fill:#1D1D1B;}
</style>
<path class="st0" d="M110.2,38.9V23.4h7.5l-0.2,1.6h-5.2v5.4h4.5V32h-4.5v6.8h-2.1V38.9z M127.7,38.9l-1-3.9h-5.2l-1,3.9h-2.1
	l4.5-15.5h2.6l4.5,15.5H127.7z M121.9,33.3h4.3l-2.2-8.2L121.9,33.3z M140,23.5c0.6,0.2,1.2,0.6,1.8,1.2l-1.1,1.3
	c-0.4-0.4-0.9-0.7-1.3-0.8s-0.9-0.3-1.4-0.3c-1.2,0-2.1,0.5-2.8,1.5s-1,2.6-1,4.8s0.3,3.8,1,4.8s1.6,1.5,2.8,1.5
	c0.6,0,1.1-0.1,1.5-0.3s0.9-0.5,1.4-0.9l1.1,1.2c-1.1,1.2-2.5,1.7-4,1.7c-1.2,0-2.2-0.3-3.1-0.9c-0.9-0.6-1.6-1.5-2.1-2.7
	s-0.8-2.7-0.8-4.4c0-1.7,0.3-3.2,0.8-4.4s1.2-2.1,2.1-2.7c0.9-0.6,1.9-0.9,3-0.9C138.7,23.1,139.4,23.3,140,23.5z M153.1,38.9v-7.3
	h-5.6v7.3h-2.1V23.4h2.1v6.5h5.6v-6.5h2.1v15.5H153.1z M169.7,34.5c0,1.5-0.5,2.6-1.5,3.3s-2.4,1.1-4.1,1.1h-4V23.4h3.4
	c1.8,0,3.2,0.3,4.1,1c1,0.7,1.4,1.6,1.4,2.9c0,0.9-0.3,1.7-0.8,2.2c-0.5,0.6-1.2,1-2,1.2C168.5,31.1,169.7,32.4,169.7,34.5z
	 M162.2,25v5h1.9c0.9,0,1.5-0.2,2-0.7c0.5-0.4,0.7-1.1,0.7-1.9c0-0.9-0.3-1.5-0.8-1.9s-1.3-0.6-2.4-0.6h-1.4V25z M166.6,36.6
	c0.6-0.4,0.9-1.1,0.9-2.1c0-1.9-1.1-2.9-3.2-2.9h-2.1v5.7h1.9C165.2,37.3,166,37.1,166.6,36.6z M181.2,23.4L181,25h-5.4v5.1h4.7v1.6
	h-4.7v5.5h5.7v1.6h-7.8V23.4H181.2z M192.8,38.9l-3.3-6.6h-0.1h-2v6.6h-2.1V23.4h3.6c3.7,0,5.5,1.5,5.5,4.4c0,1-0.2,1.9-0.7,2.6
	s-1.2,1.2-2.2,1.6l3.7,7L192.8,38.9L192.8,38.9z M191.4,30c0.5-0.5,0.8-1.2,0.8-2.2c0-0.9-0.3-1.6-0.8-2.1S190,25,188.8,25h-1.5v5.7
	h1.7C190.1,30.7,190.9,30.5,191.4,30z M206.3,23.4l-0.2,1.6h-5.4v5.1h4.7v1.6h-4.7v5.5h5.7v1.6h-7.8V23.4H206.3z M212.4,23.4v15.5
	h-2.1V23.4H212.4z M224.6,23.5c0.6,0.2,1.2,0.6,1.8,1.2l-1.1,1.3c-0.4-0.4-0.9-0.7-1.3-0.8c-0.4-0.2-0.9-0.3-1.4-0.3
	c-1.2,0-2.1,0.5-2.8,1.5s-1,2.6-1,4.8s0.3,3.8,1,4.8s1.6,1.5,2.8,1.5c0.6,0,1.1-0.1,1.5-0.3s0.9-0.5,1.4-0.9l1.1,1.2
	c-1.1,1.2-2.5,1.7-4,1.7c-1.2,0-2.2-0.3-3.1-0.9c-0.9-0.6-1.6-1.5-2.1-2.7s-0.8-2.7-0.8-4.4c0-1.7,0.3-3.2,0.8-4.4s1.2-2.1,2.1-2.7
	c0.9-0.6,1.9-0.9,3-0.9C223.2,23.1,224,23.3,224.6,23.5z M237.6,38.9v-7.3H232v7.3h-2.1V23.4h2.1v6.5h5.6v-6.5h2.1v15.5H237.6z
	 M111.8,53.5v15.4h-1.3V53.5H111.8z M119.1,53.5l-5.7,7.1l6.1,8.3h-1.6l-6-8.3l5.8-7.2L119.1,53.5L119.1,53.5z M131.7,64.5
	c0,1.4-0.4,2.5-1.2,3.3c-0.8,0.9-1.9,1.3-3.4,1.3c-1.5,0-2.6-0.4-3.4-1.3s-1.2-2-1.2-3.3v-11h1.3v10.9c0,1.1,0.3,2,0.8,2.6
	s1.4,0.9,2.5,0.9c1.1,0,2-0.3,2.5-0.9s0.8-1.5,0.8-2.6V53.5h1.3L131.7,64.5L131.7,64.5z M125.9,49.7c0.2,0.2,0.2,0.4,0.2,0.6
	c0,0.3-0.1,0.5-0.2,0.6c-0.2,0.2-0.4,0.2-0.6,0.2s-0.4-0.1-0.6-0.2s-0.2-0.4-0.2-0.6c0-0.2,0.1-0.4,0.2-0.6s0.4-0.2,0.6-0.2
	C125.5,49.4,125.7,49.5,125.9,49.7z M129.7,49.7c0.2,0.2,0.2,0.4,0.2,0.6c0,0.3-0.1,0.5-0.2,0.6s-0.4,0.2-0.6,0.2
	c-0.3,0-0.5-0.1-0.6-0.2s-0.2-0.4-0.2-0.6c0-0.2,0.1-0.4,0.2-0.6s0.4-0.2,0.6-0.2C129.3,49.4,129.5,49.5,129.7,49.7z M146.2,68.9
	h-1.7l-6.4-14c0.1,1.4,0.2,3.1,0.2,5.2v8.7H137V53.5h1.7l6.4,14c-0.1-1.8-0.2-3.3-0.2-4.5v-9.4h1.2v15.3H146.2z M157.2,53.7
	c0.6,0.3,1.2,0.7,1.8,1.3l-0.7,0.8c-0.5-0.5-1-0.8-1.5-1s-1.1-0.3-1.7-0.3c-0.8,0-1.5,0.2-2,0.7s-0.8,1.1-0.8,1.9
	c0,0.8,0.2,1.4,0.7,1.9s1.3,0.9,2.5,1.3c1.4,0.5,2.4,1,3,1.7s1,1.6,1,2.8c0,0.8-0.2,1.6-0.6,2.3c-0.4,0.7-0.9,1.2-1.6,1.6
	s-1.5,0.6-2.4,0.6c-1.7,0-3.2-0.6-4.5-1.9l0.7-0.8c0.6,0.5,1.1,0.9,1.7,1.2c0.6,0.3,1.2,0.4,2,0.4c1,0,1.8-0.3,2.4-0.9
	s0.9-1.4,0.9-2.4c0-0.6-0.1-1.1-0.3-1.5s-0.5-0.8-1-1.1s-1.1-0.6-2-0.9c-1.4-0.5-2.4-1.1-3-1.7c-0.6-0.6-0.9-1.5-0.9-2.5
	c0-0.7,0.2-1.3,0.5-1.9c0.4-0.6,0.8-1,1.5-1.4c0.6-0.3,1.3-0.5,2.1-0.5C155.8,53.2,156.6,53.4,157.2,53.7z M170.9,53.5l-0.1,1.1
	h-4.1v14.3h-1.3V54.6h-4.1v-1.1H170.9z M175.8,53.5v14.2h5.8l-0.2,1.2h-6.9V53.5H175.8z M186.5,53.5v15.4h-1.3V53.5H186.5z
	 M198.8,53.6c0.5,0.2,1.1,0.6,1.6,1.1l-0.7,0.8c-0.5-0.4-0.9-0.7-1.4-0.9c-0.4-0.2-0.9-0.3-1.5-0.3c-1.3,0-2.4,0.5-3.2,1.6
	s-1.2,2.8-1.2,5.2c0,2.3,0.4,4,1.2,5.1s1.8,1.7,3.1,1.7c0.6,0,1.2-0.1,1.6-0.3c0.4-0.2,0.9-0.5,1.4-0.9l0.7,0.8
	c-1,1-2.3,1.6-3.8,1.6c-1.1,0-2.1-0.3-2.9-0.9c-0.9-0.6-1.5-1.5-2-2.7s-0.7-2.7-0.7-4.4s0.2-3.2,0.7-4.4s1.2-2.1,2-2.7
	c0.9-0.6,1.8-0.9,2.9-0.9C197.6,53.2,198.3,53.4,198.8,53.6z M212.3,68.9v-7.6h-6.5v7.6h-1.3V53.5h1.3v6.8h6.5v-6.8h1.3v15.4H212.3z
	 M226.2,53.5l-0.2,1.1h-5.6v5.8h4.9v1.1h-4.9v6.3h5.9v1.1h-7.2V53.5H226.2z M238.6,53.5v15.4h-1.3V53.5H238.6z M253.4,68.9h-1.7
	l-6.4-14c0.1,1.4,0.2,3.1,0.2,5.2v8.7h-1.2V53.5h1.7l6.4,14c-0.1-1.8-0.2-3.3-0.2-4.5v-9.4h1.2V68.9z M266.6,53.5l-0.1,1.1h-4v14.3
	h-1.3V54.6H257v-1.1H266.6z M277.2,53.5l-0.2,1.1h-5.6v5.8h4.9v1.1h-4.9v6.3h5.9v1.1h-7.2V53.5H277.2z M282.9,53.5v14.2h5.8
	l-0.2,1.2h-6.9V53.5H282.9z M293.7,53.5v14.2h5.8l-0.2,1.2h-6.9V53.5H293.7z M304.5,53.5v15.4h-1.3V53.5H304.5z M317,53.6
	c0.6,0.2,1.2,0.6,1.8,1.2l-0.8,0.8c-0.5-0.4-1-0.7-1.4-0.9c-0.5-0.2-1-0.3-1.6-0.3c-0.8,0-1.5,0.2-2.2,0.7s-1.2,1.2-1.6,2.2
	s-0.6,2.3-0.6,3.9c0,4.6,1.5,6.9,4.4,6.9c1,0,2-0.3,2.9-0.8v-5.5h-2.7l-0.2-1.1h4.1V68c-1.3,0.8-2.7,1.3-4.1,1.3
	c-1.8,0-3.2-0.7-4.3-2c-1-1.3-1.5-3.3-1.5-6c0-1.7,0.3-3.2,0.8-4.4s1.3-2.1,2.1-2.6c0.9-0.6,1.9-0.9,2.9-0.9
	C315.8,53.2,316.5,53.4,317,53.6z M330.8,53.5l-0.2,1.1H325v5.8h4.9v1.1H325v6.3h5.9v1.1h-7.2V53.5H330.8z M344.4,68.9h-1.7l-6.4-14
	c0.1,1.4,0.2,3.1,0.2,5.2v8.7h-1.2V53.5h1.7l6.4,14c-0.1-1.8-0.2-3.3-0.2-4.5v-9.4h1.2V68.9z M357.3,53.5v1.1l-7.4,13.2h7.3
	l-0.2,1.1h-8.5v-1.1l7.4-13.2h-6.7v-1.1C349.2,53.5,357.3,53.5,357.3,53.5z"/>
<path class="st0" d="M64,23.1v46.1h-9.9V23.1H64L40.9,0L17.1,23.8c2-0.5,4.1-0.7,6.4-0.7c9.2,0,14.6,2.9,20.2,9.9l-8.1,4.7
	c-3.5-4.4-7.7-5.9-13.2-5.9c-1.4,0-3.4,0.6-4.6,1.2c-5.6,2.5-8.2,7.2-8.2,13c0,8,5.5,14.8,14.1,14.8c6.4,0,10.5-2.6,12.2-8.9H23.5
	v-7.1h22.9v2.4c0,12.8-10.3,21.9-23.3,21.9c-2.1,0-4.1-0.2-6-0.7l23.8,23.8L87.1,46L64,23.1z"/>
</svg>
