<svg id="KI-Campus_Logo" data-name="KI-Campus Logo" xmlns="http://www.w3.org/2000/svg" viewBox="0 0 140.31 47.11"><defs><style>.cls-1{fill:#3a2a78;}</style></defs><title>KI-Campus_Logo_mit_Zusatz_RGB_Aubergine</title><polygon class="cls-1" points="39.16 7.79 34.59 13.66 34.59 7.79 31.36 7.79 31.36 21.14 34.59 21.14 34.59 15.16 39.13 21.14 43.03 21.14 37.65 14.32 43.03 7.79 39.16 7.79"/><rect class="cls-1" x="44.39" y="7.79" width="3.23" height="13.35"/><rect class="cls-1" x="49.12" y="13.16" width="8.33" height="2.68"/><path class="cls-1" d="M66,10.78a3.3,3.3,0,0,1,1.86.53A3.24,3.24,0,0,1,69,12.77h3.42a6.11,6.11,0,0,0-2.17-3.63A6.54,6.54,0,0,0,66,7.8a6.68,6.68,0,0,0-3.42.86,5.74,5.74,0,0,0-2.27,2.41,7.5,7.5,0,0,0-.81,3.53,7.5,7.5,0,0,0,.81,3.53,5.8,5.8,0,0,0,2.27,2.41A6.68,6.68,0,0,0,66,21.4a6.49,6.49,0,0,0,4.22-1.35,6.17,6.17,0,0,0,2.17-3.62H69a3.24,3.24,0,0,1-1.16,1.44A3.3,3.3,0,0,1,66,18.4a2.87,2.87,0,0,1-2.29-1,4.16,4.16,0,0,1-.87-2.77,4.21,4.21,0,0,1,.87-2.78A2.84,2.84,0,0,1,66,10.78Z" transform="translate(-0.57 -0.14)"/><path class="cls-1" d="M81.33,12.65a3.25,3.25,0,0,0-1.28-1.49A3.86,3.86,0,0,0,78,10.61a4.23,4.23,0,0,0-2.33.66A4.4,4.4,0,0,0,74,13.14,6.58,6.58,0,0,0,73.42,16,6.63,6.63,0,0,0,74,18.89a4.49,4.49,0,0,0,1.63,1.88,4.3,4.3,0,0,0,2.33.65,3.78,3.78,0,0,0,2.08-.55,3.25,3.25,0,0,0,1.28-1.49v1.91h3.21V10.75H81.33Zm-.65,5.24a2.19,2.19,0,0,1-1.67.69,2.15,2.15,0,0,1-1.67-.68A2.65,2.65,0,0,1,76.71,16a2.66,2.66,0,0,1,.63-1.89A2.15,2.15,0,0,1,79,13.45a2.19,2.19,0,0,1,1.67.69A2.59,2.59,0,0,1,81.33,16,2.61,2.61,0,0,1,80.68,17.89Z" transform="translate(-0.57 -0.14)"/><path class="cls-1" d="M100.43,10.63a4,4,0,0,0-2.11.59,4.27,4.27,0,0,0-1.5,1.57,3.43,3.43,0,0,0-1.4-1.6,4,4,0,0,0-2.13-.56,3.85,3.85,0,0,0-2,.51A3.15,3.15,0,0,0,90,12.54V10.75H86.77V21.29H90v-5.6A2.31,2.31,0,0,1,90.57,14a2,2,0,0,1,1.53-.58,1.86,1.86,0,0,1,1.45.56,2.13,2.13,0,0,1,.53,1.55v5.75h3.23v-5.6A2.37,2.37,0,0,1,97.87,14a2,2,0,0,1,1.52-.59,1.88,1.88,0,0,1,1.46.56,2.13,2.13,0,0,1,.54,1.55v5.75h3.21V15.17a4.73,4.73,0,0,0-1.11-3.34A4,4,0,0,0,100.43,10.63Z" transform="translate(-0.57 -0.14)"/><path class="cls-1" d="M115.58,11.27a4.23,4.23,0,0,0-2.33-.66,3.86,3.86,0,0,0-2.08.55,3.23,3.23,0,0,0-1.27,1.49v-1.9h-3.22V26.31h3.22V19.38a3.23,3.23,0,0,0,1.27,1.49,3.78,3.78,0,0,0,2.08.55,4.3,4.3,0,0,0,2.33-.65,4.49,4.49,0,0,0,1.63-1.88A6.63,6.63,0,0,0,117.8,16a6.58,6.58,0,0,0-.59-2.88A4.4,4.4,0,0,0,115.58,11.27Zm-1.7,6.63a2.15,2.15,0,0,1-1.67.68,2.19,2.19,0,0,1-1.67-.69,2.61,2.61,0,0,1-.65-1.87,2.59,2.59,0,0,1,.65-1.88,2.19,2.19,0,0,1,1.67-.69,2.15,2.15,0,0,1,1.67.68,2.66,2.66,0,0,1,.63,1.89A2.65,2.65,0,0,1,113.88,17.9Z" transform="translate(-0.57 -0.14)"/><path class="cls-1" d="M126.72,16.34a2.51,2.51,0,0,1-.57,1.77,2,2,0,0,1-1.55.63,1.94,1.94,0,0,1-1.5-.6,2.36,2.36,0,0,1-.56-1.67V10.75h-3.21v6.12a4.85,4.85,0,0,0,1.07,3.32,3.63,3.63,0,0,0,2.88,1.21,3.91,3.91,0,0,0,2.09-.55,3.61,3.61,0,0,0,1.35-1.47v1.91H130V10.75h-3.24Z" transform="translate(-0.57 -0.14)"/><path class="cls-1" d="M140.32,16.54a3.33,3.33,0,0,0-1.35-.95,16.66,16.66,0,0,0-2-.58,7.55,7.55,0,0,1-1.63-.49.78.78,0,0,1-.52-.73.81.81,0,0,1,.28-.67,1.26,1.26,0,0,1,.83-.24,1.77,1.77,0,0,1,1.16.37,1.66,1.66,0,0,1,.6,1h3a4.35,4.35,0,0,0-1.5-2.65,4.88,4.88,0,0,0-3.2-1,4.71,4.71,0,0,0-3,.88,2.83,2.83,0,0,0-1.08,2.3,2.55,2.55,0,0,0,.55,1.73,3.17,3.17,0,0,0,1.3.91,12.85,12.85,0,0,0,1.93.53,9.77,9.77,0,0,1,1.69.5.82.82,0,0,1,.52.78.89.89,0,0,1-.29.68,1.23,1.23,0,0,1-.83.25,2.14,2.14,0,0,1-1.29-.36,1.41,1.41,0,0,1-.58-1H131.8a4,4,0,0,0,1.56,2.7,5.66,5.66,0,0,0,3.42,1A5.39,5.39,0,0,0,139,21a3.24,3.24,0,0,0,1.42-1.09,3,3,0,0,0-.07-3.39Z" transform="translate(-0.57 -0.14)"/><rect class="cls-1" x="24.89" width="0.5" height="28.06"/><path class="cls-1" d="M3.11,19.11a2.54,2.54,0,1,0,2.54,2.54A2.54,2.54,0,0,0,3.11,19.11Z" transform="translate(-0.57 -0.14)"/><path class="cls-1" d="M17.48,4.74A2.54,2.54,0,1,0,20,7.28,2.54,2.54,0,0,0,17.48,4.74Z" transform="translate(-0.57 -0.14)"/><path class="cls-1" d="M17.48,11.92A2.55,2.55,0,1,0,20,14.47,2.55,2.55,0,0,0,17.48,11.92Z" transform="translate(-0.57 -0.14)"/><path class="cls-1" d="M17.48,19.11A2.54,2.54,0,0,0,15,21.31H12.83a2.55,2.55,0,0,0-2-2.15V17a2.54,2.54,0,1,0-3-2.89H5.61a2.54,2.54,0,0,0-2-2.08V9.77a2.54,2.54,0,1,0-1,0V12a2.54,2.54,0,1,0,3,3.11h2.3a2.54,2.54,0,0,0,2,1.86v2.21a2.54,2.54,0,1,0,2.95,3.18H15a2.54,2.54,0,1,0,2.44-3.23Z" transform="translate(-0.57 -0.14)"/><path class="cls-1" d="M10.32,9.82A2.54,2.54,0,1,0,7.78,7.28,2.54,2.54,0,0,0,10.32,9.82Z" transform="translate(-0.57 -0.14)"/><path class="cls-1" d="M36.13,34.66a2.25,2.25,0,0,1-1,1,3.3,3.3,0,0,1-1.54.34H31.89V30.52h1.72a3.44,3.44,0,0,1,1.54.32,2.28,2.28,0,0,1,1,.94,3,3,0,0,1,.33,1.45A2.93,2.93,0,0,1,36.13,34.66Zm-1,.11a2,2,0,0,0,.56-1.54,2.1,2.1,0,0,0-.55-1.55,2.28,2.28,0,0,0-1.63-.55h-1v4.18h1A2.23,2.23,0,0,0,35.18,34.77Z" transform="translate(-0.57 -0.14)"/><path class="cls-1" d="M37.49,30.17a.5.5,0,0,1,.35-.12.51.51,0,0,1,.35.12.43.43,0,0,1,0,.62.51.51,0,0,1-.35.12.5.5,0,0,1-.35-.12.43.43,0,0,1,0-.62Zm.7,1.55V36h-.71V31.72Z" transform="translate(-0.57 -0.14)"/><path class="cls-1" d="M43.24,34H39.86a1.5,1.5,0,0,0,.42,1.09,1.32,1.32,0,0,0,.95.36,1.39,1.39,0,0,0,.85-.26,1,1,0,0,0,.42-.69h.74a1.7,1.7,0,0,1-.34.79,1.85,1.85,0,0,1-.69.54,2.24,2.24,0,0,1-1,.19,2.21,2.21,0,0,1-1.08-.26,2,2,0,0,1-.74-.75,2.7,2.7,0,0,1,0-2.31,1.84,1.84,0,0,1,.74-.75,2.11,2.11,0,0,1,1.08-.27,2,2,0,0,1,1.07.27,1.69,1.69,0,0,1,.7.7,2,2,0,0,1,.24,1A2.09,2.09,0,0,1,43.24,34Zm-.83-1.12a1.14,1.14,0,0,0-.48-.47,1.54,1.54,0,0,0-.67-.16,1.37,1.37,0,0,0-1,.36,1.45,1.45,0,0,0-.43,1h2.71A1.45,1.45,0,0,0,42.41,32.86Z" transform="translate(-0.57 -0.14)"/><path class="cls-1" d="M47,35.4h1.92V36H46.25V30.52H47Z" transform="translate(-0.57 -0.14)"/><path class="cls-1" d="M53.52,34H50.14a1.53,1.53,0,0,0,.41,1.09,1.36,1.36,0,0,0,1,.36,1.41,1.41,0,0,0,.85-.26,1.13,1.13,0,0,0,.42-.69h.74a1.7,1.7,0,0,1-.34.79,1.85,1.85,0,0,1-.69.54,2.24,2.24,0,0,1-1,.19,2.21,2.21,0,0,1-1.08-.26,2,2,0,0,1-.74-.75,2.7,2.7,0,0,1,0-2.31,1.84,1.84,0,0,1,.74-.75,2.11,2.11,0,0,1,1.08-.27,2.07,2.07,0,0,1,1.07.27,1.69,1.69,0,0,1,.7.7,2,2,0,0,1,.24,1A2.09,2.09,0,0,1,53.52,34Zm-.83-1.12a1.14,1.14,0,0,0-.48-.47,1.54,1.54,0,0,0-.67-.16,1.37,1.37,0,0,0-1,.36,1.42,1.42,0,0,0-.43,1h2.71A1.45,1.45,0,0,0,52.69,32.86Z" transform="translate(-0.57 -0.14)"/><path class="cls-1" d="M55.86,31.89a1.79,1.79,0,0,1,1-.24v.76H56.6a1.45,1.45,0,0,0-1,.31,1.18,1.18,0,0,0-.38,1V36h-.7V31.72h.7v.85A1.55,1.55,0,0,1,55.86,31.89Z" transform="translate(-0.57 -0.14)"/><path class="cls-1" d="M61,32.12a1.92,1.92,0,0,1,.45,1.37V36h-.7v-2.4a1.34,1.34,0,0,0-.32-1,1.15,1.15,0,0,0-.88-.34,1.2,1.2,0,0,0-.92.38,1.53,1.53,0,0,0-.35,1.09V36h-.7V31.72h.7v1a1.42,1.42,0,0,1,.58-.79,1.61,1.61,0,0,1,1-.28A1.59,1.59,0,0,1,61,32.12Z" transform="translate(-0.57 -0.14)"/><path class="cls-1" d="M65.94,31.93a1.68,1.68,0,0,1,.69.75,2.79,2.79,0,0,1,0,2.31,1.79,1.79,0,0,1-.69.75,1.93,1.93,0,0,1-1,.26,1.69,1.69,0,0,1-1-.31,1.57,1.57,0,0,1-.59-.82V38h-.7V31.72h.7V32.8A1.54,1.54,0,0,1,63.9,32a1.69,1.69,0,0,1,1-.32A1.85,1.85,0,0,1,65.94,31.93ZM64,32.48a1.21,1.21,0,0,0-.51.54,1.84,1.84,0,0,0,0,1.63,1.33,1.33,0,0,0,.51.54,1.43,1.43,0,0,0,.74.19A1.36,1.36,0,0,0,65.79,35a1.89,1.89,0,0,0,0-2.27,1.39,1.39,0,0,0-1.05-.41A1.43,1.43,0,0,0,64,32.48Z" transform="translate(-0.57 -0.14)"/><path class="cls-1" d="M68.58,30.25V36h-.7v-5.7Z" transform="translate(-0.57 -0.14)"/><path class="cls-1" d="M72.55,32a1.58,1.58,0,0,1,.6.83V31.72h.7V36h-.7V34.87a1.55,1.55,0,0,1-.6.82,1.69,1.69,0,0,1-1,.31,2,2,0,0,1-1-.26,1.92,1.92,0,0,1-.69-.75,2.79,2.79,0,0,1,0-2.31,1.8,1.8,0,0,1,.69-.75,1.87,1.87,0,0,1,1-.27A1.76,1.76,0,0,1,72.55,32Zm-1.88.73a1.89,1.89,0,0,0,0,2.27,1.35,1.35,0,0,0,1,.41A1.39,1.39,0,0,0,73,34.65,1.94,1.94,0,0,0,73,33a1.29,1.29,0,0,0-.52-.54,1.41,1.41,0,0,0-.74-.19A1.39,1.39,0,0,0,70.67,32.7Z" transform="translate(-0.57 -0.14)"/><path class="cls-1" d="M77.06,35.33V36h-.52a1.38,1.38,0,0,1-1-.31,1.41,1.41,0,0,1-.32-1V32.33h-.63v-.61h.63V30.66H76v1.06h1.09v.61H76v2.29a.8.8,0,0,0,.15.56.72.72,0,0,0,.52.15Z" transform="translate(-0.57 -0.14)"/><path class="cls-1" d="M80,35.33V36h-.52a1.38,1.38,0,0,1-1-.31,1.41,1.41,0,0,1-.32-1V32.33h-.63v-.61h.63V30.66h.71v1.06H80v.61H78.91v2.29a.8.8,0,0,0,.15.56.72.72,0,0,0,.52.15Z" transform="translate(-0.57 -0.14)"/><path class="cls-1" d="M82,30.91a.92.92,0,0,0-.22.69v.12h1v.61h-1V36h-.7V32.33H80.5v-.61h.61v-.17c0-1,.57-1.49,1.7-1.45v.62A1.15,1.15,0,0,0,82,30.91Z" transform="translate(-0.57 -0.14)"/><path class="cls-1" d="M86.66,31.93a1.81,1.81,0,0,1,.75.75,2.52,2.52,0,0,1,0,2.31,1.93,1.93,0,0,1-.75.75,2.28,2.28,0,0,1-1.09.26,2.31,2.31,0,0,1-1.09-.26,2,2,0,0,1-.76-.75,2.61,2.61,0,0,1,0-2.31,1.89,1.89,0,0,1,.76-.75,2.2,2.2,0,0,1,1.09-.27A2.18,2.18,0,0,1,86.66,31.93Zm-1.79.52a1.28,1.28,0,0,0-.51.52,1.75,1.75,0,0,0-.2.87,1.72,1.72,0,0,0,.2.85,1.22,1.22,0,0,0,.51.52,1.53,1.53,0,0,0,1.4,0,1.22,1.22,0,0,0,.51-.52,1.72,1.72,0,0,0,.2-.85,1.75,1.75,0,0,0-.2-.87,1.28,1.28,0,0,0-.51-.52,1.53,1.53,0,0,0-1.4,0Z" transform="translate(-0.57 -0.14)"/><path class="cls-1" d="M90,31.89a1.85,1.85,0,0,1,1-.24v.76h-.22a1.45,1.45,0,0,0-1,.31,1.21,1.21,0,0,0-.38,1V36h-.7V31.72h.7v.85A1.55,1.55,0,0,1,90,31.89Z" transform="translate(-0.57 -0.14)"/><path class="cls-1" d="M98.1,32.12a1.92,1.92,0,0,1,.45,1.37V36h-.7v-2.4a1.37,1.37,0,0,0-.3-.95,1.08,1.08,0,0,0-.84-.33,1.17,1.17,0,0,0-.89.36,1.55,1.55,0,0,0-.33,1.08V36h-.7v-2.4a1.33,1.33,0,0,0-.31-.95,1.07,1.07,0,0,0-.83-.33,1.18,1.18,0,0,0-.9.36,1.55,1.55,0,0,0-.33,1.08V36h-.7V31.72h.7v1a1.37,1.37,0,0,1,.55-.77,1.75,1.75,0,0,1,1.85,0,1.47,1.47,0,0,1,.56.81,1.57,1.57,0,0,1,.59-.8,1.62,1.62,0,0,1,.94-.28A1.57,1.57,0,0,1,98.1,32.12Z" transform="translate(-0.57 -0.14)"/><path class="cls-1" d="M33,40.15a.88.88,0,0,0-.22.69V41h1v.61h-1v3.61h-.7V41.57h-.61V41h.61v-.17c0-1,.56-1.5,1.7-1.45V40A1.11,1.11,0,0,0,33,40.15Z" transform="translate(-0.57 -0.14)"/><path class="cls-1" d="M38.35,41v4.22h-.7v-1a1.38,1.38,0,0,1-.57.79,1.69,1.69,0,0,1-1,.27,1.53,1.53,0,0,1-1.18-.47,1.85,1.85,0,0,1-.46-1.36V41h.7v2.39a1.37,1.37,0,0,0,.33,1,1.12,1.12,0,0,0,.87.34,1.23,1.23,0,0,0,.93-.37,1.57,1.57,0,0,0,.34-1.09V41Zm-2.84-1.24a.37.37,0,0,1,.27-.11.38.38,0,0,1,.39.39.36.36,0,0,1-.11.26.37.37,0,0,1-.28.11.33.33,0,0,1-.27-.11A.33.33,0,0,1,35.4,40,.37.37,0,0,1,35.51,39.72Zm1.28,0a.39.39,0,0,1,.54,0,.38.38,0,0,1,.12.28.39.39,0,0,1-.66.26.33.33,0,0,1-.11-.26A.37.37,0,0,1,36.79,39.72Z" transform="translate(-0.57 -0.14)"/><path class="cls-1" d="M40.86,41.13a1.85,1.85,0,0,1,1-.24v.76H41.6a1.52,1.52,0,0,0-1,.3,1.24,1.24,0,0,0-.37,1v2.22h-.7V41h.7v.85A1.53,1.53,0,0,1,40.86,41.13Z" transform="translate(-0.57 -0.14)"/><path class="cls-1" d="M45.92,42.44l2.48,2.74h-.87l-2.26-2.53v2.53h-.7V39.76h.7v2.51l2.27-2.51h.86Z" transform="translate(-0.57 -0.14)"/><path class="cls-1" d="M52.92,41v4.22h-.7v-1a1.42,1.42,0,0,1-.57.79,1.74,1.74,0,0,1-1,.27,1.57,1.57,0,0,1-1.19-.47,1.89,1.89,0,0,1-.45-1.36V41h.7v2.39a1.41,1.41,0,0,0,.32,1,1.15,1.15,0,0,0,.88.34,1.25,1.25,0,0,0,.93-.37,1.57,1.57,0,0,0,.34-1.09V41Zm-2.84-1.24a.39.39,0,0,1,.54,0,.38.38,0,0,1,.12.28.39.39,0,0,1-.66.26A.33.33,0,0,1,50,40,.37.37,0,0,1,50.08,39.72Zm1.28,0A.38.38,0,0,1,52,40a.33.33,0,0,1-.11.26.39.39,0,0,1-.66-.26A.38.38,0,0,1,51.36,39.72Z" transform="translate(-0.57 -0.14)"/><path class="cls-1" d="M57.54,41.36A1.88,1.88,0,0,1,58,42.73v2.45h-.7V42.79a1.34,1.34,0,0,0-.33-1,1.14,1.14,0,0,0-.88-.34,1.23,1.23,0,0,0-.92.37,1.57,1.57,0,0,0-.35,1.09v2.24h-.7V41h.7v1a1.39,1.39,0,0,1,.58-.79,1.61,1.61,0,0,1,1-.28A1.59,1.59,0,0,1,57.54,41.36Z" transform="translate(-0.57 -0.14)"/><path class="cls-1" d="M61.63,41.28a1.55,1.55,0,0,1,.52,1h-.67a1,1,0,0,0-.31-.62,1,1,0,0,0-.71-.24.89.89,0,0,0-.59.18.61.61,0,0,0-.21.49.51.51,0,0,0,.14.37,1,1,0,0,0,.36.22c.14,0,.33.1.58.16a5.15,5.15,0,0,1,.76.22,1.2,1.2,0,0,1,.49.35,1,1,0,0,1,.2.67,1.05,1.05,0,0,1-.39.84,1.57,1.57,0,0,1-1,.32,2,2,0,0,1-1.23-.36,1.46,1.46,0,0,1-.57-1h.68a.88.88,0,0,0,.34.62,1.21,1.21,0,0,0,.78.24.85.85,0,0,0,.57-.18.66.66,0,0,0,.2-.49.53.53,0,0,0-.15-.39,1,1,0,0,0-.36-.23c-.14,0-.34-.1-.59-.16a5.27,5.27,0,0,1-.75-.21,1.11,1.11,0,0,1-.48-.35.93.93,0,0,1-.2-.63,1.06,1.06,0,0,1,.4-.86,1.59,1.59,0,0,1,1.07-.33A1.71,1.71,0,0,1,61.63,41.28Z" transform="translate(-0.57 -0.14)"/><path class="cls-1" d="M65.23,44.57v.61H64.7a1.35,1.35,0,0,1-1-.3,1.37,1.37,0,0,1-.32-1V41.57h-.63V41h.63V39.9h.71V41h1.09v.61H64.13v2.29a.8.8,0,0,0,.15.56.72.72,0,0,0,.52.15Z" transform="translate(-0.57 -0.14)"/><path class="cls-1" d="M66.86,39.49v5.69h-.7V39.49Z" transform="translate(-0.57 -0.14)"/><path class="cls-1" d="M68.07,39.41a.5.5,0,0,1,.35-.12.49.49,0,0,1,.34.12.43.43,0,0,1,0,.62.49.49,0,0,1-.34.12.5.5,0,0,1-.35-.12.43.43,0,0,1,0-.62ZM68.76,41v4.22h-.7V41Z" transform="translate(-0.57 -0.14)"/><path class="cls-1" d="M73.17,41.34a1.78,1.78,0,0,1,.66,1.15h-.74a1.07,1.07,0,0,0-.42-.71,1.39,1.39,0,0,0-.85-.26,1.43,1.43,0,0,0-.68.17,1.16,1.16,0,0,0-.48.52,2.06,2.06,0,0,0,0,1.73,1.16,1.16,0,0,0,.48.52,1.43,1.43,0,0,0,.68.17,1.39,1.39,0,0,0,.85-.26,1.09,1.09,0,0,0,.42-.72h.74a1.77,1.77,0,0,1-.66,1.16,2,2,0,0,1-1.34.43A2.2,2.2,0,0,1,70.76,45a1.91,1.91,0,0,1-.74-.75,2.61,2.61,0,0,1,0-2.31,1.78,1.78,0,0,1,.74-.75,2.1,2.1,0,0,1,1.07-.27A2,2,0,0,1,73.17,41.34Z" transform="translate(-0.57 -0.14)"/><path class="cls-1" d="M78.24,41.36a1.92,1.92,0,0,1,.45,1.37v2.45H78V42.79a1.34,1.34,0,0,0-.32-1,1.15,1.15,0,0,0-.88-.34,1.23,1.23,0,0,0-.92.37,1.57,1.57,0,0,0-.35,1.09v2.24h-.7V39.49h.7V42a1.39,1.39,0,0,1,.58-.79,1.61,1.61,0,0,1,1-.28A1.59,1.59,0,0,1,78.24,41.36Z" transform="translate(-0.57 -0.14)"/><path class="cls-1" d="M83.71,43.22H80.33a1.47,1.47,0,0,0,.41,1.09,1.34,1.34,0,0,0,1,.36,1.39,1.39,0,0,0,.85-.26,1,1,0,0,0,.42-.69h.75a1.83,1.83,0,0,1-.35.79,1.7,1.7,0,0,1-.69.54,2.24,2.24,0,0,1-1,.19A2.21,2.21,0,0,1,80.64,45a1.88,1.88,0,0,1-.73-.75,2.61,2.61,0,0,1,0-2.31,1.76,1.76,0,0,1,.73-.75,2.11,2.11,0,0,1,1.08-.27,2,2,0,0,1,1.07.27,1.69,1.69,0,0,1,.7.7,1.87,1.87,0,0,1,.25,1A2.09,2.09,0,0,1,83.71,43.22Zm-.84-1.12a1,1,0,0,0-.48-.47,1.41,1.41,0,0,0-.67-.16,1.37,1.37,0,0,0-1,.36,1.45,1.45,0,0,0-.42,1.05H83A1.45,1.45,0,0,0,82.87,42.1Z" transform="translate(-0.57 -0.14)"/><path class="cls-1" d="M87.41,39.76v5.42h-.7V39.76Z" transform="translate(-0.57 -0.14)"/><path class="cls-1" d="M92,41.36a1.92,1.92,0,0,1,.45,1.37v2.45h-.7V42.79a1.34,1.34,0,0,0-.32-1,1.15,1.15,0,0,0-.88-.34,1.23,1.23,0,0,0-.92.37,1.57,1.57,0,0,0-.35,1.09v2.24h-.7V41h.7v1a1.39,1.39,0,0,1,.58-.79,1.61,1.61,0,0,1,1-.28A1.59,1.59,0,0,1,92,41.36Z" transform="translate(-0.57 -0.14)"/><path class="cls-1" d="M95.66,44.57v.61h-.53a1.35,1.35,0,0,1-1-.3,1.37,1.37,0,0,1-.32-1V41.57h-.63V41h.63V39.9h.71V41h1.09v.61H94.56v2.29a.8.8,0,0,0,.15.56.72.72,0,0,0,.52.15Z" transform="translate(-0.57 -0.14)"/><path class="cls-1" d="M100.45,43.22H97.07a1.47,1.47,0,0,0,.41,1.09,1.34,1.34,0,0,0,1,.36,1.39,1.39,0,0,0,.85-.26,1,1,0,0,0,.42-.69h.75a1.83,1.83,0,0,1-.35.79,1.7,1.7,0,0,1-.69.54,2.24,2.24,0,0,1-1,.19A2.21,2.21,0,0,1,97.38,45a1.88,1.88,0,0,1-.73-.75,2.61,2.61,0,0,1,0-2.31,1.76,1.76,0,0,1,.73-.75,2.11,2.11,0,0,1,1.08-.27,2,2,0,0,1,1.07.27,1.69,1.69,0,0,1,.7.7,1.87,1.87,0,0,1,.25,1A2.09,2.09,0,0,1,100.45,43.22Zm-.84-1.12a1.09,1.09,0,0,0-.48-.47,1.41,1.41,0,0,0-.67-.16,1.37,1.37,0,0,0-1,.36,1.45,1.45,0,0,0-.42,1.05h2.7A1.45,1.45,0,0,0,99.61,42.1Z" transform="translate(-0.57 -0.14)"/><path class="cls-1" d="M102.17,39.49v5.69h-.7V39.49Z" transform="translate(-0.57 -0.14)"/><path class="cls-1" d="M104.07,39.49v5.69h-.7V39.49Z" transform="translate(-0.57 -0.14)"/><path class="cls-1" d="M105.28,39.41a.5.5,0,0,1,.35-.12.51.51,0,0,1,.35.12.43.43,0,0,1,0,.62.51.51,0,0,1-.35.12.5.5,0,0,1-.35-.12.43.43,0,0,1,0-.62ZM106,41v4.22h-.7V41Z" transform="translate(-0.57 -0.14)"/><path class="cls-1" d="M110,41.21a1.58,1.58,0,0,1,.6.83V41h.7v4.29a2.08,2.08,0,0,1-.25,1,1.69,1.69,0,0,1-.69.71,2.06,2.06,0,0,1-1,.26,2.19,2.19,0,0,1-1.39-.42,1.81,1.81,0,0,1-.69-1.11h.7a1.18,1.18,0,0,0,.46.67,1.5,1.5,0,0,0,.88.24,1.29,1.29,0,0,0,1-.37,1.35,1.35,0,0,0,.37-1V44.11a1.55,1.55,0,0,1-.6.82,1.69,1.69,0,0,1-1,.31,1.82,1.82,0,0,1-1.69-1,2.79,2.79,0,0,1,0-2.31,1.8,1.8,0,0,1,.69-.75,1.85,1.85,0,0,1,1-.27A1.76,1.76,0,0,1,110,41.21Zm-1.88.73a1.89,1.89,0,0,0,0,2.27,1.35,1.35,0,0,0,1,.41,1.41,1.41,0,0,0,.74-.19,1.33,1.33,0,0,0,.51-.54,1.84,1.84,0,0,0,0-1.63,1.21,1.21,0,0,0-.51-.54,1.41,1.41,0,0,0-.74-.19A1.35,1.35,0,0,0,108.07,41.94Z" transform="translate(-0.57 -0.14)"/><path class="cls-1" d="M116.3,43.22h-3.38a1.51,1.51,0,0,0,.41,1.09,1.47,1.47,0,0,0,1.8.1,1,1,0,0,0,.42-.69h.75a1.7,1.7,0,0,1-.34.79,1.85,1.85,0,0,1-.69.54,2.24,2.24,0,0,1-1,.19,2.21,2.21,0,0,1-1.08-.26,1.91,1.91,0,0,1-.74-.75,2.7,2.7,0,0,1,0-2.31,1.78,1.78,0,0,1,.74-.75,2.11,2.11,0,0,1,1.08-.27,2.07,2.07,0,0,1,1.07.27,1.75,1.75,0,0,1,.7.7,2,2,0,0,1,.24,1A2.09,2.09,0,0,1,116.3,43.22Zm-.83-1.12a1.11,1.11,0,0,0-.49-.47,1.34,1.34,0,0,0-.66-.16,1.41,1.41,0,0,0-1,.36,1.45,1.45,0,0,0-.42,1.05h2.7A1.37,1.37,0,0,0,115.47,42.1Z" transform="translate(-0.57 -0.14)"/><path class="cls-1" d="M120.74,41.36a1.88,1.88,0,0,1,.46,1.37v2.45h-.7V42.79a1.34,1.34,0,0,0-.33-1,1.12,1.12,0,0,0-.87-.34,1.23,1.23,0,0,0-.93.37,1.57,1.57,0,0,0-.34,1.09v2.24h-.71V41H118v1a1.33,1.33,0,0,1,.57-.79,1.61,1.61,0,0,1,1-.28A1.59,1.59,0,0,1,120.74,41.36Z" transform="translate(-0.57 -0.14)"/><path class="cls-1" d="M122.76,44.59H125v.59h-3v-.56l2.16-3.07h-2.1V41H125v.57Z" transform="translate(-0.57 -0.14)"/></svg>